<svg width="16" height="21" viewBox="0 0 16 21" fill="none" xmlns="http://www.w3.org/2000/svg">
<path d="M0.922914 9.66122C0.809746 9.58544 0.676166 9.53578 0.537748 9.53584C0.399413 9.53582 0.268888 9.58432 0.171035 9.67421C0.0731822 9.7641 0.0138015 9.89005 0.00210246 10.0279C-0.00967921 10.1658 0.0284971 10.3031 0.0944197 10.4223C0.0944197 10.4223 0.0944197 10.4223 0.0944197 10.4223C0.349982 10.8853 0.601117 11.3416 0.843767 11.7925C1.82589 13.5939 2.6108 15.3352 3.49361 17.1646C3.887 17.9756 4.26727 18.804 4.64937 19.6441C5.25506 21.0324 6.91943 20.9522 7.41603 19.5211C9.39469 13.4879 11.3699 7.61622 14.6646 2.20767C14.9278 1.75982 15.1917 1.31888 15.4642 0.871786C15.5389 0.748939 15.5704 0.601972 15.5453 0.458658C15.5203 0.315384 15.4418 0.188182 15.3258 0.10409C15.2097 0.0199985 15.0644 -0.0149816 14.9204 0.0059014C14.7765 0.0267437 14.6466 0.102421 14.5532 0.211726C14.5532 0.211726 14.5532 0.211726 14.5532 0.211726C14.2091 0.615569 13.8747 1.01675 13.5415 1.42895C9.37427 6.39812 6.68842 12.5526 4.6013 18.5624L7.36797 18.4395C6.99441 17.5752 6.61012 16.7157 6.19248 15.8546C5.26986 13.9279 3.92985 12.0454 2.2317 10.6464C1.81127 10.2943 1.37362 9.9671 0.922914 9.66122Z" fill="white"/>
</svg>
